<svg width="261" height="258" viewBox="0 0 261 258" fill="none" xmlns="http://www.w3.org/2000/svg">
<path d="M260.7 130.2C260.7 192.3 217.2 244.2 158.9 257.1V240.4L223 176.3C227.3 172 230.5 164.3 230.5 158.2V125C238.1 123 243.7 116.2 243.7 108C243.7 98.3 235.8 90.5 226.2 90.5C216.5 90.5 208.6 98.4 208.6 108C208.6 116.2 214.2 123 221.8 125V158.2C221.8 161.8 219.5 167.5 216.9 170.1L164.3 222.7H144.9L136.1 213.9V205.3L185.2 156.2C188.4 153 190.8 147.2 190.8 142.6V129.1C195.9 127.7 199.6 123 199.6 117.5C199.6 110.8 194.2 105.4 187.5 105.4C180.8 105.4 175.4 110.8 175.4 117.5C175.4 123 179.1 127.7 184.2 129.1V142.6C184.2 145.3 182.4 149.6 180.5 151.5L135.9 196V137.1L164.2 108.8C167.4 105.6 169.8 99.7999 169.8 95.2V81.6C174.9 80.2 178.6 75.5 178.6 70C178.6 63.3 173.2 57.8999 166.5 57.8999C159.8 57.8999 154.4 63.3 154.4 70C154.4 75.5 158.1 80.2 163.2 81.6V95.2C163.2 97.8999 161.4 102.2 159.5 104.1L135.9 127.7V53C143.5 51 149.1 44.2 149.1 36C149.1 26.3 141.2 18.5 131.6 18.5C121.9 18.5 114 26.4 114 36C114 44.2 119.6 51 127.2 53V185.7L116 174.5C114.1 172.6 112.3 168.3 112.3 165.6V85C112.3 80.5 109.9 74.5999 106.7 71.3999L99.9 64.6C101.2 62.7 101.9 60.4 101.9 58C101.9 51.3 96.5 45.8999 89.8 45.8999C83.2001 45.8999 77.7 51.3 77.7 58C77.7 64.7 83.1001 70.1 89.8 70.1C91.6001 70.1 93.3 69.7 94.9 69L102 76.1C103.9 78 105.7 82.3 105.7 85V165.7C105.7 170.2 108.1 176.1 111.3 179.3L127.2 195.2V214L118.4 222.8H101.7L92.9 214V157.7C92.9 152.9 90.3 146.7 86.9 143.4L85.1001 141.6V119.3C90.2001 117.9 93.9 113.2 93.9 107.7C93.9 101.1 88.5 95.6 81.8 95.6C75.1001 95.6 69.7 101 69.7 107.7C69.7 113.2 73.4 117.9 78.5 119.3V135L55 111.5C53.3 109.8 51.6001 105.8 51.6001 103.4V97.8999C59.2001 95.8999 64.8 89.0999 64.8 80.8999C64.8 71.2 56.9 63.3999 47.2 63.3999C37.5 63.3999 29.7 71.2999 29.7 80.8999C29.7 88.9999 35.3 95.8999 42.9 97.8999V103.4C42.9 108.2 45.4 114.3 48.8 117.7L80.7 149.6C82.4 151.3 84.1001 155.3 84.1001 157.7V216.6L40.5 172.4C38.6 170.4 36.8 166.2 36.8 163.4V154.3C41.9 152.9 45.6001 148.2 45.6001 142.7C45.6001 136 40.2 130.6 33.5 130.6C26.8 130.6 21.4 136 21.4 142.7C21.4 148.2 25.1 152.9 30.2 154.3V163.4C30.2 167.9 32.6 173.8 35.8 177L99.8 241.9V256.5C43 242.6 0.800049 191.3 0.800049 130.2C0.800049 58.3999 59 0.199951 130.8 0.199951C202.5 0.199951 260.7 58.3999 260.7 130.2Z" fill="#33CEF2"/>
<path d="M47.2 90.6999C41.8 90.6999 37.3 86.2999 37.3 80.7999C37.3 75.2999 41.7 70.8999 47.2 70.8999C52.6 70.8999 57.1001 75.2999 57.1001 80.7999C57.0001 86.2999 52.6 90.6999 47.2 90.6999Z" fill="#33CEF2"/>
<path d="M131.5 46C126.1 46 121.6 41.6 121.6 36.1C121.6 30.7 126 26.2 131.5 26.2C136.9 26.2 141.4 30.6 141.4 36.1C141.4 41.6 137 46 131.5 46Z" fill="#33CEF2"/>
<path d="M226.1 118C220.7 118 216.2 113.6 216.2 108.1C216.2 102.7 220.6 98.2 226.1 98.2C231.5 98.2 236 102.6 236 108.1C236 113.6 231.6 118 226.1 118Z" fill="#33CEF2"/>
</svg>
